<!-- Generated by IcoMoon.io -->
<svg version="1.1" xmlns="http://www.w3.org/2000/svg" width="512" height="448" viewBox="0 0 512 448">
<title></title>
<g id="icomoon-ignore">
</g>
<path d="M256 380.75c-6.5 0-41.5-35-41.5-41.75 0-12.25 32-19 41.5-19s41.5 6.75 41.5 19c0 6.75-35 41.75-41.5 41.75zM323.5 313c-3.5 0-30.75-25-67.5-25-37 0-63.75 25-67.5 25-6 0-42.25-36-42.25-42 0-2.25 1-4.25 2.5-5.75 26.75-26.5 70.25-41.25 107.25-41.25s80.5 14.75 107.25 41.25c1.5 1.5 2.5 3.5 2.5 5.75 0 6-36.25 42-42.25 42zM391.75 245c-2 0-4.25-1-5.75-2-41.25-32-76-51-130-51-75.5 0-133 53-135.75 53-5.75 0-41.75-36-41.75-42 0-2 1-4 2.5-5.5 44.75-44.75 112.25-69.5 175-69.5s130.25 24.75 175 69.5c1.5 1.5 2.5 3.5 2.5 5.5 0 6-36 42-41.75 42zM459.5 177.25c-2 0-4-1-5.5-2.25-57.75-50.75-120-79-198-79s-140.25 28.25-198 79c-1.5 1.25-3.5 2.25-5.5 2.25-5.75 0-42-36-42-42 0-2.25 1-4.25 2.5-5.75 63.25-62.75 154.5-97.5 243-97.5s179.75 34.75 243 97.5c1.5 1.5 2.5 3.5 2.5 5.75 0 6-36.25 42-42 42z"></path>
</svg>
